<?xml version="1.0" encoding="UTF-8"?>
<svg id="Camada_1" xmlns="http://www.w3.org/2000/svg" version="1.1" xmlns:xlink="http://www.w3.org/1999/xlink" viewBox="0 0 526 144.1">
  <!-- Generator: Adobe Illustrator 29.1.0, SVG Export Plug-In . SVG Version: 2.1.0 Build 142)  -->
  <defs>
    <style>
      .st0 {
        fill: url(#Gradiente_sem_nome_2);
      }

      .st1 {
        fill: url(#Gradiente_sem_nome);
      }

      .st2 {
        clip-path: url(#clippath-1);
      }

      .st3 {
        fill: #231f20;
      }

      .st4 {
        fill: #c6363b;
      }

      .st5 {
        clip-rule: evenodd;
        fill: none;
      }

      .st6 {
        clip-path: url(#clippath);
      }
    </style>
    <clipPath id="clippath">
      <path class="st5" d="M37.9,4c32.9,57.7-51,86.3,6.7,136-1.7-33.4,42.2-69.7,19.8-99.1,5.5,27.1-19.6,44.7-24.6,70.6-18.5-14.8,47.8-70.1-2-107.5"/>
    </clipPath>
    <linearGradient id="Gradiente_sem_nome" data-name="Gradiente sem nome" x1="21.7" y1="102.5" x2="53.4" y2="40.7" gradientUnits="userSpaceOnUse">
      <stop offset="0" stop-color="#f5801e"/>
      <stop offset="1" stop-color="#f5c623"/>
    </linearGradient>
    <clipPath id="clippath-1">
      <path class="st5" d="M41.7,7.2c-1-1.1-2.3-2.1-3.8-3.1,1.4,1,2.6,2.1,3.8,3.1M38.5,94.5c2,1.1,4,2.3,5.9,3.4,8.7-19.2,24.6-34.9,20.1-57-1.6,18.9-8,26-14.1,26.1-4.1,10.2-9.1,19.7-11.8,27.5ZM39.9,7.8c6.3,17.9-27.2,40.6-20.1,69.3,1,4,3.6,7.2,7.1,10,3.3-9.3,8.5-18.5,12.6-28.3-.6-1.3-1.2-2.8-1.5-4.3-1.9-7.9,5-19.3,7.3-29.9-.8-5.3-2.5-10.9-5.4-16.8Z"/>
    </clipPath>
    <linearGradient id="Gradiente_sem_nome_2" data-name="Gradiente sem nome 2" x1="27.1" y1="91.8" x2="50.1" y2="23.5" gradientUnits="userSpaceOnUse">
      <stop offset="0" stop-color="#ff0204"/>
      <stop offset="1" stop-color="#a6201d"/>
    </linearGradient>
  </defs>
  <path class="st3" d="M497.6,135.4c.2.2.5.5.7.8.3.3.6.5.9.7.3.2.7.4,1.1.5.4.1.9.2,1.4.2,1,0,1.8-.2,2.4-.7.6-.5.9-1.1.9-1.9s-.3-1.5-1-1.9c-.6-.4-1.6-.8-2.8-1-.7-.1-1.3-.3-1.8-.6-.5-.2-1-.6-1.4-.9-.4-.4-.7-.8-.9-1.3-.2-.5-.3-1-.3-1.7s.1-1.1.3-1.6c.2-.5.5-1,1-1.3.4-.4,1-.7,1.6-.9.6-.2,1.4-.3,2.2-.3s1.4,0,2,.2c.5.2,1,.4,1.4.6.4.2.7.5.9.7.2.2.4.4.5.6l-1.5,1.4c0-.1-.2-.3-.4-.4-.2-.2-.4-.4-.7-.5-.3-.2-.6-.3-1-.4-.4-.1-.8-.2-1.3-.2s-.9,0-1.3.2c-.4.1-.6.3-.9.5-.2.2-.4.4-.5.7-.1.3-.2.5-.2.8,0,.4,0,.7.2,1,.2.3.4.5.7.7.3.2.7.4,1.1.5.5.1,1,.3,1.6.4.6.1,1.1.3,1.7.5.5.2,1,.5,1.5.9.4.4.8.8,1,1.4.3.5.4,1.2.4,2s-.1,1.3-.4,1.8c-.3.6-.7,1-1.1,1.4-.5.4-1.1.7-1.7.9-.7.2-1.4.3-2.2.3s-1.4,0-2-.3c-.6-.2-1.1-.4-1.6-.6-.5-.3-.9-.6-1.3-.9-.4-.3-.7-.6-.9-.9l1.6-1.4ZM486.3,137.4c.8,0,1.6-.2,2.3-.5.7-.3,1.3-.8,1.8-1.3.5-.6.9-1.2,1.1-1.9.3-.7.4-1.5.4-2.3s-.1-1.6-.4-2.3c-.3-.7-.6-1.4-1.1-1.9-.5-.6-1.1-1-1.8-1.3-.7-.3-1.5-.5-2.3-.5s-1.6.2-2.3.5c-.7.3-1.3.8-1.7,1.3-.5.6-.9,1.2-1.1,1.9-.3.7-.4,1.5-.4,2.3s.1,1.6.4,2.3c.3.7.6,1.4,1.1,1.9.5.6,1.1,1,1.7,1.3.7.3,1.4.5,2.3.5ZM486.3,139.5c-1.1,0-2.1-.2-3.1-.6-1-.4-1.8-1-2.5-1.7-.7-.7-1.3-1.6-1.7-2.6-.4-1-.6-2-.6-3.2s.2-2.2.6-3.2c.4-1,1-1.8,1.7-2.6.7-.7,1.5-1.3,2.5-1.7,1-.4,2-.6,3.1-.6s2.1.2,3.1.6c1,.4,1.8,1,2.5,1.7.7.7,1.3,1.6,1.7,2.6.4,1,.6,2,.6,3.2s-.2,2.2-.6,3.2c-.4,1-1,1.8-1.7,2.6-.7.7-1.5,1.3-2.5,1.7-1,.4-2,.6-3.1.6ZM470.6,125.7h-5.5v-1.9h13.3v1.9h-5.5v13.5h-2.2v-13.5ZM453.7,123.7h9.7v2h-7.5v4.5h5.6v2h-5.6v5h8v2h-10.3v-15.4ZM442.4,136c.4.5.9.9,1.4,1.1.5.2,1,.3,1.6.3s.7,0,1-.2c.3-.1.6-.3.8-.5.2-.2.4-.6.6-.9.1-.4.2-.8.2-1.4v-10.7h2.2v10.9c0,.9-.1,1.7-.4,2.3-.3.6-.6,1.1-1.1,1.5-.4.4-1,.7-1.5.9-.6.2-1.2.3-1.9.3-1.1,0-2.1-.2-2.8-.6-.7-.4-1.3-.9-1.8-1.5l1.6-1.4ZM432.9,137.4c.8,0,1.6-.2,2.3-.5.7-.3,1.3-.8,1.8-1.3.5-.6.9-1.2,1.1-1.9.3-.7.4-1.5.4-2.3s-.1-1.6-.4-2.3c-.3-.7-.6-1.4-1.1-1.9-.5-.6-1.1-1-1.8-1.3-.7-.3-1.5-.5-2.3-.5s-1.6.2-2.3.5c-.7.3-1.3.8-1.7,1.3-.5.6-.9,1.2-1.1,1.9-.3.7-.4,1.5-.4,2.3s.1,1.6.4,2.3c.3.7.6,1.4,1.1,1.9.5.6,1.1,1,1.7,1.3.7.3,1.4.5,2.3.5ZM432.9,139.5c-1.1,0-2.1-.2-3.1-.6-1-.4-1.8-1-2.5-1.7-.7-.7-1.3-1.6-1.7-2.6-.4-1-.6-2-.6-3.2s.2-2.2.6-3.2c.4-1,1-1.8,1.7-2.6.7-.7,1.5-1.3,2.5-1.7,1-.4,2-.6,3.1-.6s2.1.2,3.1.6c1,.4,1.8,1,2.5,1.7.7.7,1.3,1.6,1.7,2.6.4,1,.6,2,.6,3.2s-.2,2.2-.6,3.2c-.4,1-1,1.8-1.7,2.6-.7.7-1.5,1.3-2.5,1.7-1,.4-2,.6-3.1.6ZM417.6,130.9c1,0,1.7-.2,2.2-.7.5-.5.7-1.1.7-1.9s-.3-1.5-.8-2c-.5-.5-1.2-.7-2.2-.7h-2.9v5.3h3ZM412.5,123.7h4.9c1,0,1.8.1,2.5.4.7.3,1.2.6,1.7,1,.4.4.7.9.9,1.4.2.5.3,1.1.3,1.6,0,1-.2,1.9-.7,2.6-.5.8-1.2,1.3-2.2,1.7l3.6,6.6h-2.5l-3.3-6.3h-3.1v6.3h-2.2v-15.4ZM404.4,131.2c1,0,1.7-.2,2.2-.7.5-.5.8-1.2.8-2s-.3-1.6-.8-2.1c-.5-.5-1.3-.8-2.2-.8h-2.8v5.6h2.8ZM399.4,123.7h4.9c1,0,1.9.1,2.6.4.7.3,1.2.7,1.6,1.1.4.4.7.9.9,1.5.2.6.2,1.1.2,1.6,0,.8-.1,1.4-.4,2-.3.6-.6,1.1-1.1,1.5-.5.4-1,.7-1.7.9-.6.2-1.3.3-2.1.3h-2.8v6.1h-2.2v-15.4ZM382.2,123.7h9.7v2h-7.5v4.5h5.6v2h-5.6v5h8v2h-10.3v-15.4ZM367.2,137.4c.8,0,1.6-.2,2.3-.5.7-.3,1.3-.8,1.8-1.3.5-.6.9-1.2,1.1-1.9.3-.7.4-1.5.4-2.3s-.1-1.6-.4-2.3c-.3-.7-.6-1.4-1.1-1.9-.5-.6-1.1-1-1.8-1.3-.7-.3-1.5-.5-2.3-.5s-1.6.2-2.3.5c-.7.3-1.3.8-1.7,1.3-.5.6-.9,1.2-1.1,1.9-.3.7-.4,1.5-.4,2.3s.1,1.6.4,2.3c.3.7.6,1.4,1.1,1.9.5.6,1.1,1,1.7,1.3.7.3,1.4.5,2.3.5ZM367.2,139.5c-1.1,0-2.1-.2-3.1-.6-1-.4-1.8-1-2.5-1.7-.7-.7-1.3-1.6-1.7-2.6-.4-1-.6-2-.6-3.2s.2-2.2.6-3.2c.4-1,1-1.8,1.7-2.6.7-.7,1.5-1.3,2.5-1.7,1-.4,2-.6,3.1-.6s2.1.2,3.1.6c1,.4,1.8,1,2.5,1.7.7.7,1.3,1.6,1.7,2.6.4,1,.6,2,.6,3.2s-.2,2.2-.6,3.2c-.4,1-1,1.8-1.7,2.6-.7.7-1.5,1.3-2.5,1.7-1,.4-2,.6-3.1.6ZM354.2,123.7h2.2v15.4h-2.2v-15.4ZM342.8,137.1c1.9,0,3.4-.5,4.5-1.4,1.1-.9,1.6-2.4,1.6-4.2s-.5-3.3-1.5-4.3c-1-1-2.6-1.5-4.6-1.5h-2.8v11.4h2.9ZM337.7,123.7h5.2c1.2,0,2.3.2,3.4.5,1,.3,1.9.8,2.6,1.4.7.6,1.3,1.4,1.7,2.4.4,1,.6,2.1.6,3.5s-.2,2.4-.6,3.4c-.4,1-1,1.8-1.7,2.4-.7.6-1.6,1.1-2.7,1.4-1,.3-2.2.5-3.4.5h-5.1v-15.4ZM321.4,123.7h2.2l8.4,12v-12h2.2v15.4h-2.2l-8.4-12.1v12.1h-2.2v-15.4ZM312.1,119h2c.4.6.9,1.2,1.3,1.7.4.6.8,1.1,1.3,1.7h-1.9c-.3-.4-.6-.7-.8-1.1-.3-.4-.6-.7-.8-1.1l-1.7,2.1h-1.9l2.6-3.5ZM308.3,123.7h9.7v2h-7.5v4.5h5.6v2h-5.6v5h8v2h-10.3v-15.4ZM305.7,136.4c-.2.3-.4.6-.8.9-.4.4-.8.7-1.3,1-.5.3-1.1.6-1.8.8-.7.2-1.4.3-2.2.3-1.1,0-2.2-.2-3.1-.6-.9-.4-1.7-1-2.4-1.7-.7-.7-1.2-1.6-1.6-2.5-.4-1-.6-2-.6-3.2s.2-2.2.6-3.2c.4-1,.9-1.9,1.6-2.6.7-.7,1.5-1.3,2.4-1.7.9-.4,2-.6,3.2-.6s1.5.1,2.2.3c.6.2,1.2.5,1.7.8.5.3.9.6,1.2,1,.3.4.6.7.8,1l-1.6,1.3c-.2-.3-.4-.5-.7-.8-.3-.3-.6-.5-.9-.8-.4-.2-.8-.4-1.2-.6-.5-.2-1-.2-1.6-.2s-1.6.2-2.3.5c-.7.3-1.2.8-1.7,1.3-.5.6-.8,1.2-1.1,1.9-.2.7-.4,1.5-.4,2.4s.1,1.6.4,2.3c.3.7.6,1.4,1.1,1.9.5.5,1,1,1.7,1.3.7.3,1.4.5,2.2.5s1.3,0,1.8-.3c.5-.2.9-.4,1.3-.6.3-.2.6-.5.9-.8.2-.3.4-.5.6-.6l1.5,1.3ZM276.3,123.7h2.2l8.4,12v-12h2.2v15.4h-2.2l-8.4-12.1v12.1h-2.2v-15.4ZM270.6,123.7h2.2v15.4h-2.2v-15.4ZM253.3,123.7h9.7v2h-7.5v4.5h5.6v2h-5.6v5h8v2h-10.3v-15.4ZM241.9,137.1c1.9,0,3.4-.5,4.5-1.4,1.1-.9,1.6-2.4,1.6-4.2s-.5-3.3-1.5-4.3c-1-1-2.6-1.5-4.6-1.5h-2.8v11.4h2.9ZM236.8,123.7h5.2c1.2,0,2.3.2,3.4.5,1,.3,1.9.8,2.6,1.4.7.6,1.3,1.4,1.7,2.4.4,1,.6,2.1.6,3.5s-.2,2.4-.6,3.4c-.4,1-1,1.8-1.7,2.4-.7.6-1.6,1.1-2.7,1.4-1,.3-2.2.5-3.4.5h-5.1v-15.4ZM225.9,133l-2.5-6.8-2.5,6.8h5ZM222.3,123.7h2.3l6,15.4h-2.5l-1.6-4.3h-6.3l-1.6,4.3h-2.3l6-15.4ZM212.1,123.7h2.2v15.4h-2.2v-15.4ZM203.5,130.9c1,0,1.7-.2,2.2-.7.5-.5.7-1.1.7-1.9s-.3-1.5-.8-2c-.5-.5-1.2-.7-2.2-.7h-2.9v5.3h3ZM198.4,123.7h4.9c1,0,1.8.1,2.5.4.7.3,1.2.6,1.7,1,.4.4.7.9.9,1.4.2.5.3,1.1.3,1.6,0,1-.2,1.9-.7,2.6-.5.8-1.2,1.3-2.2,1.7l3.6,6.6h-2.5l-3.3-6.3h-3.1v6.3h-2.2v-15.4ZM191.7,133l-2.5-6.8-2.5,6.8h5ZM188.1,123.7h2.3l6,15.4h-2.5l-1.6-4.3h-6.3l-1.6,4.3h-2.3l6-15.4ZM167.2,123.7h2.2v6.5h8.4v-6.5h2.2v15.4h-2.2v-7h-8.4v7h-2.2v-15.4ZM150.8,123.7h2.2l8.4,12v-12h2.2v15.4h-2.2l-8.4-12.1v12.1h-2.2v-15.4ZM137.8,123.7h9.7v2h-7.5v4.5h5.6v2h-5.6v5h8v2h-10.3v-15.4ZM129,131.3h5.4v6.2c-.3.3-.6.5-1,.8-.4.2-.8.5-1.3.7-.5.2-1.1.3-1.7.5-.6.1-1.3.2-2.1.2-1.2,0-2.3-.2-3.2-.6-1-.4-1.8-1-2.5-1.7-.7-.7-1.2-1.6-1.6-2.5-.4-1-.5-2-.5-3.2s.2-2.2.6-3.2c.4-1,.9-1.8,1.6-2.6.7-.7,1.5-1.3,2.4-1.7.9-.4,2-.6,3.2-.6s1.5,0,2.2.3c.6.2,1.2.4,1.7.7.5.3.9.6,1.2,1,.3.4.6.7.9,1l-1.6,1.3c-.2-.3-.4-.5-.7-.8-.3-.3-.6-.5-.9-.8s-.8-.4-1.2-.6c-.5-.2-1-.2-1.6-.2-.8,0-1.6.2-2.3.5-.7.3-1.3.8-1.7,1.3-.5.6-.8,1.2-1.1,2-.3.7-.4,1.5-.4,2.4s.1,1.7.4,2.5c.3.7.7,1.4,1.2,1.9.5.5,1.1.9,1.8,1.2.7.3,1.4.5,2.2.5s1.7-.1,2.3-.3c.6-.2,1.2-.5,1.6-.8v-3.1h-3.3v-1.9ZM104.8,123.7h2.2l8.4,12v-12h2.2v15.4h-2.2l-8.4-12.1v12.1h-2.2v-15.4ZM91.7,123.7h9.7v2h-7.5v4.5h5.6v2h-5.6v5h8v2h-10.3v-15.4Z"/>
  <path class="st4" d="M492.9,76h-8v38.6h-10.3V31.5c0-4.8.4-8.9,1.3-12.3.8-3.4,3.5-6.4,7.9-8.8,1.2-.6,2.8-.9,4.9-.9s3.9.3,5.4.9c4.4,2.4,7,5.4,7.8,8.8.9,3.4,1.3,7.5,1.3,12.3,0,13.7-.1,27.6,0,41.6,0,14,0,27.9,0,41.5h-10.3v-38.6M488.9,19.5c-2.1.3-3.3,1.3-3.6,2.8-.3,1.5-.5,3.1-.5,4.8,0,6.3,0,12.7,0,19.2,0,6.5,0,13,0,19.5h8v-19.5c0-6.5,0-12.9.1-19.2,0-1.7-.2-3.3-.5-4.8-.3-1.5-1.5-2.4-3.6-2.7ZM428.8,10.9h10.5v103.7h-10.5V10.9ZM376.3,20.4v35.8h1.8c3,0,4.8-.9,5.3-2.8.5-1.8.8-3.8.8-5.8v-18.7c0-1.9-.3-3.8-.8-5.7-.5-1.9-2.3-2.8-5.3-2.8h-1.8ZM365.8,10.9h.1c2.8,0,6,0,9.8-.2,3.8-.1,6.9.2,9.4.9,4.3,1.3,6.9,4,7.8,8.4,1,4.3,1.4,8.6,1.4,12.7v11.2c0,3-.2,6.1-.6,9.2-.4,3.1-1.4,5.7-2.9,7.9,1.5,2.3,2.5,5,2.9,8.1.4,3.1.6,6.2.6,9.1v36.4h-10.3v-40.2c0-1.9-.3-3.8-.8-5.7-.5-1.9-2.3-2.8-5.3-2.8h-1.8v48.7h-10.5V10.9ZM311.7,114.6c0-15.1-.2-30.7-.3-47,0-16.2-.1-31.9-.1-47.1-1.1,0-2.6,0-4.6,0-2,0-3.5,0-4.5,0v-9.7h29.3v9.7h-9.5v94.1h-10.2ZM268.7,93.9c0,4.8-.4,8.9-1.3,12.4-.9,3.5-3.5,6.4-8,8.7-1.1.6-2.7.9-4.8.9s-4.1-.3-5.4-.9c-4.4-2.3-7.1-5.3-8-8.7-.9-3.5-1.3-7.6-1.2-12.4,0-1,0-.7,0,.8s0-.2,0-5.2h10.3c0,2.9,0,4.5,0,4.6,0,.2,0,0,0-.3s0-.5,0-.4v4.3c0,1.8.1,3.4.4,5,.3,1.5,1.5,2.4,3.7,2.4,2-.3,3.2-1.1,3.5-2.6.3-1.5.5-3.1.5-4.8v-31.9h-18.3V31.5c0-4.8.3-8.9,1.2-12.3.9-3.4,3.5-6.4,8-8.8,1.2-.6,2.8-.9,4.9-.9s3.9.3,5.3.9c4.4,2.3,7,5.2,7.9,8.7.9,3.4,1.4,7.5,1.4,12.3h-10.3v-4.3c0-1.7-.1-3.3-.4-4.8-.3-1.5-1.5-2.4-3.6-2.6-2.1.3-3.3,1.1-3.6,2.6-.3,1.5-.5,3.1-.5,4.8v29.1h18.3c0,6.3,0,12.6,0,18.8,0,6.3,0,12.6,0,18.8ZM205.7,114.6c-2.7,0-5.9.1-9.6.3-3.7.2-7,0-9.7-.7-3.8-1.3-6.2-3.8-7.4-7.7-1.2-3.9-1.8-8.4-1.8-13.4v-60.4c0-4.2.5-8.4,1.4-12.7.9-4.3,3.5-7.1,7.8-8.4,2.5-.8,5.7-1.1,9.5-.9,3.8.1,7.1.2,9.9.2v9.5h-12.2c-3.1,0-4.9.9-5.4,2.8-.5,1.9-.8,3.8-.8,5.7,0,4.5,0,9,0,13.6,0,4.5,0,9,0,13.6h8.3v9.8c-1.8,0-3.2.1-4.2,0-1,0-2.3,0-4.1,0v30.4c-.1,2,.1,3.8.6,5.3.5,1.5,2.3,2.3,5.4,2.3h12.2v10.7ZM128.4,19.5c-2.1.3-3.3,1.3-3.6,2.8-.3,1.5-.5,3.1-.5,4.8,0,14.1,0,28.8,0,43.8,0,15.1,0,29.6,0,43.7h-10.4v-43.7c0-15.1,0-29.7.1-43.8,0-1.7-.2-3.3-.5-4.8-.3-1.5-1.5-2.4-3.6-2.7-2.1.3-3.3,1.3-3.6,2.8-.3,1.5-.4,3.1-.4,4.8v87.5h-10.2c0-13.6,0-27.5,0-41.5,0-14,0-27.9,0-41.6s.4-8.9,1.3-12.3c.8-3.4,3.5-6.4,8-8.8,1-.6,2.6-.9,4.8-.9s4.1.3,5.4.9c1.6.9,2.9,1.9,4,2.9,1.2-1.1,2.6-2.1,4.1-2.9,1.2-.6,2.8-.9,4.9-.9s3.9.3,5.3.9c4.4,2.4,7,5.4,7.8,8.8.9,3.4,1.3,7.5,1.3,12.3v83.1h-10.2c0-14.1,0-28.6,0-43.7,0-15.1,0-29.7,0-43.8,0-1.7-.2-3.3-.5-4.8-.3-1.5-1.5-2.4-3.5-2.7Z"/>
  <g class="st6">
    <rect class="st1" x="-13.1" y="4" width="100.8" height="136"/>
  </g>
  <g class="st2">
    <rect class="st0" x="12.7" y="4" width="56.2" height="93.9"/>
  </g>
</svg>